<svg width="24" height="24" viewBox="0 0 24 24" fill="none" xmlns="http://www.w3.org/2000/svg">
<path d="M2.49999 6.39998C1.99999 6.89998 1.79999 7.49998 1.79999 8.29998V18.3C1.79999 19 2.09999 19.7 2.59999 20.2C3.09999 20.7 3.79999 21 4.49999 21H4.89999V5.59998H4.39999C3.69999 5.59998 3.09999 5.79998 2.49999 6.39998ZM17.1 3.69998C17.1 3.39998 17 3.09998 16.8 2.89998C16.6 2.69998 16.3 2.59998 16 2.59998H8.99999C8.69999 2.59998 8.39999 2.69998 8.19999 2.89998C7.99999 3.09998 7.89999 3.29998 7.89999 3.69998V5.59998H5.99999V20.9H19V5.59998H17.1V3.69998ZM9.39999 3.99998H15.5V5.49998H9.39999V3.99998ZM17.1 14.4C17.1 14.5 17.1 14.6 17 14.7C16.9 14.8 16.8 14.8 16.7 14.8H14V17.5C14 17.6 14 17.7 13.9 17.8C13.8 17.9 13.7 17.9 13.6 17.9H11.3C11.2 17.9 11.1 17.9 11 17.8C11 17.7 11 17.6 11 17.5V14.8H8.29999C8.19999 14.8 8.09999 14.8 7.99999 14.7C7.89999 14.6 7.89999 14.5 7.89999 14.4V12.1C7.89999 12 7.89999 11.9 7.99999 11.8C8.09999 11.7 8.19999 11.7 8.29999 11.7H11V8.99998C11 8.89998 11 8.79998 11.1 8.69998C11.2 8.59998 11.3 8.59998 11.4 8.59998H13.7C13.8 8.59998 13.9 8.59998 14 8.69998C14 8.79998 14 8.89998 14 8.99998V11.7H16.7C16.8 11.7 16.9 11.7 17 11.8C17.1 11.9 17.1 12 17.1 12.1V14.4ZM22.4 6.39998C21.9 5.89998 21.2 5.59998 20.5 5.59998H20.1V20.9H20.5C21.2 20.9 21.9 20.6 22.4 20.1C22.9 19.6 23.2 18.9 23.2 18.2V8.19998C23.2 7.49998 23 6.89998 22.4 6.39998Z" fill="url(#paint0_linear_303_25)"/>
<defs>
<linearGradient id="paint0_linear_303_25" x1="1.75519" y1="11.7102" x2="23.2215" y2="11.7102" gradientUnits="userSpaceOnUse">
<stop stop-color="#1245C6"/>
<stop offset="1" stop-color="#9909B7"/>
</linearGradient>
</defs>
</svg>
