<svg width="23" height="18" viewBox="0 0 23 18" fill="none" xmlns="http://www.w3.org/2000/svg">
<path d="M21.7 0.899988C21.3 0.499988 20.9 0.299988 20.3 0.299988H2.69999C2.19999 0.299988 1.69999 0.499988 1.29999 0.899988C0.899988 1.29999 0.799988 1.69999 0.799988 2.29999V15.3C0.799988 15.8 0.999988 16.3 1.39999 16.7C1.79999 17.1 2.19999 17.3 2.79999 17.3H20.4C20.9 17.3 21.4 17.1 21.8 16.7C22.2 16.3 22.4 15.9 22.4 15.3V2.29999C22.2 1.69999 22 1.29999 21.7 0.899988ZM20.7 15.3C20.7 15.4 20.7 15.5 20.6 15.6C20.5 15.7 20.4 15.7 20.3 15.7H2.69999C2.59999 15.7 2.49999 15.7 2.39999 15.6C2.29999 15.5 2.29999 15.4 2.29999 15.3V5.29999C2.29999 5.19999 2.29999 5.09999 2.39999 4.99999C2.49999 4.99999 2.59999 4.89999 2.69999 4.89999H20.3C20.4 4.89999 20.5 4.89999 20.6 4.99999C20.7 5.09999 20.7 5.19999 20.7 5.29999V15.3V15.3ZM4.99999 12.6H4.19999C4.09999 12.6 3.99999 12.6 3.89999 12.7C3.79999 12.8 3.79999 12.9 3.79999 13V13.8C3.79999 13.9 3.79999 14 3.89999 14.1C3.99999 14.2 4.09999 14.2 4.19999 14.2H4.99999C5.09999 14.2 5.19999 14.2 5.29999 14.1C5.39999 14 5.39999 13.9 5.39999 13.8V13C5.39999 12.9 5.39999 12.8 5.29999 12.7C5.19999 12.7 5.09999 12.6 4.99999 12.6ZM4.99999 9.49999H4.19999C4.09999 9.49999 3.99999 9.49999 3.89999 9.59999C3.79999 9.69999 3.79999 9.79999 3.79999 9.89999V10.7C3.79999 10.8 3.79999 10.9 3.89999 11C3.99999 11 4.09999 11.1 4.19999 11.1H4.99999C5.09999 11.1 5.19999 11.1 5.29999 11C5.39999 10.9 5.39999 10.8 5.39999 10.7V9.89999C5.39999 9.79999 5.39999 9.69999 5.29999 9.59999C5.19999 9.59999 5.09999 9.49999 4.99999 9.49999ZM4.99999 6.49999H4.19999C4.09999 6.49999 3.99999 6.49999 3.89999 6.59999C3.89999 6.69999 3.79999 6.79999 3.79999 6.89999V7.69999C3.79999 7.79999 3.79999 7.89999 3.89999 7.99999C3.99999 7.99999 4.09999 7.99999 4.19999 7.99999H4.99999C5.09999 7.99999 5.19999 7.99999 5.29999 7.89999C5.39999 7.79999 5.39999 7.69999 5.39999 7.59999V6.89999C5.39999 6.79999 5.39999 6.69999 5.29999 6.59999C5.19999 6.49999 5.09999 6.49999 4.99999 6.49999ZM18.8 12.6H7.29999C7.19999 12.6 7.09999 12.6 6.99999 12.7C6.89999 12.8 6.89999 12.9 6.89999 13V13.8C6.89999 13.9 6.89999 14 6.99999 14.1C7.09999 14.2 7.19999 14.2 7.29999 14.2H18.8C18.9 14.2 19 14.2 19.1 14.1C19.2 14 19.2 13.9 19.2 13.8V13C19.2 12.9 19.2 12.8 19.1 12.7C19 12.7 18.9 12.6 18.8 12.6ZM18.8 9.49999H7.29999C7.19999 9.49999 7.09999 9.49999 6.99999 9.59999C6.89999 9.69999 6.89999 9.79999 6.89999 9.89999V10.7C6.89999 10.8 6.89999 10.9 6.99999 11C7.09999 11.1 7.19999 11.1 7.29999 11.1H18.8C18.9 11.1 19 11.1 19.1 11C19.2 10.9 19.2 10.8 19.2 10.7V9.89999C19.2 9.79999 19.2 9.69999 19.1 9.59999C19 9.59999 18.9 9.49999 18.8 9.49999ZM18.8 6.49999H7.29999C7.19999 6.49999 7.09999 6.49999 6.99999 6.59999C6.89999 6.69999 6.89999 6.79999 6.89999 6.89999V7.69999C6.89999 7.79999 6.89999 7.89999 6.99999 7.99999C7.09999 7.99999 7.19999 7.99999 7.29999 7.99999H18.8C18.9 7.99999 19 7.99999 19.1 7.89999C19.2 7.79999 19.2 7.69999 19.2 7.59999V6.89999C19.2 6.79999 19.2 6.69999 19.1 6.59999C19 6.49999 18.9 6.49999 18.8 6.49999Z" fill="url(#paint0_linear_303_20)"/>
<defs>
<linearGradient id="paint0_linear_303_20" x1="0.755188" y1="8.78279" x2="22.2215" y2="8.78279" gradientUnits="userSpaceOnUse">
<stop stop-color="#1245C6"/>
<stop offset="1" stop-color="#9909B7"/>
</linearGradient>
</defs>
</svg>
