<svg width="68" height="71" viewBox="0 0 68 71" fill="none" xmlns="http://www.w3.org/2000/svg">
<path d="M57.3333 5.33331H50.6668V3.66675C50.6697 3.22708 50.5858 2.79117 50.4196 2.38411C50.2535 1.97703 50.0083 1.60688 49.6985 1.29491C49.3888 0.982955 49.0202 0.735377 48.6143 0.566423C48.2085 0.39747 47.773 0.310486 47.3333 0.310486C46.8938 0.310486 46.4583 0.39747 46.0525 0.566423C45.6466 0.735377 45.278 0.982955 44.9683 1.29491C44.6585 1.60688 44.4133 1.97703 44.2472 2.38411C44.081 2.79117 43.9971 3.22708 44 3.66675V5.33331H24V3.66675C24.003 3.22708 23.9191 2.79117 23.7528 2.38411C23.5868 1.97703 23.3416 1.60688 23.0317 1.29491C22.7221 0.982955 22.3535 0.735377 21.9475 0.566423C21.5417 0.39747 21.1063 0.310486 20.6666 0.310486C20.2271 0.310486 19.7916 0.39747 19.3858 0.566423C18.9799 0.735377 18.6113 0.982955 18.3016 1.29491C17.9917 1.60688 17.7466 1.97703 17.5805 2.38411C17.4142 2.79117 17.3303 3.22708 17.3333 3.66675V5.33331H10.6667C8.01547 5.3362 5.47361 6.3907 3.59887 8.26544C1.72414 10.1402 0.669639 12.682 0.666748 15.3333V60.3333C0.669639 62.9845 1.72414 65.5264 3.59887 67.4011C5.47361 69.2759 8.01547 70.3305 10.6667 70.3333H57.3333C59.9846 70.3305 62.5264 69.2759 64.4011 67.4011C66.276 65.5264 67.3304 62.9845 67.3333 60.3333V15.3333C67.3304 12.682 66.276 10.1402 64.4011 8.26544C62.5264 6.3907 59.9846 5.3362 57.3333 5.33331ZM7.33331 15.3333C7.33434 14.4495 7.68587 13.6024 8.3108 12.9774C8.93572 12.3525 9.783 12.001 10.6667 12H17.3333V13.6667C17.3394 14.5469 17.6932 15.3889 18.3177 16.0091C18.9421 16.6292 19.7866 16.9774 20.6666 16.9774C21.5468 16.9774 22.3913 16.6292 23.0157 16.0091C23.6402 15.3889 23.9939 14.5469 24 13.6667V12H44V13.6667C44.0061 14.5469 44.3599 15.3889 44.9844 16.0091C45.6088 16.6292 46.4533 16.9774 47.3333 16.9774C48.2135 16.9774 49.058 16.6292 49.6824 16.0091C50.3069 15.3889 50.6607 14.5469 50.6668 13.6667V12H57.3333C58.2171 12.001 59.0644 12.3525 59.6893 12.9774C60.3143 13.6024 60.6657 14.4495 60.6668 15.3333V23.6667H7.33331V15.3333ZM60.6668 60.3333C60.6658 61.217 60.3143 62.0644 59.6893 62.6892C59.0644 63.3142 58.2171 63.6658 57.3333 63.6667H10.6667C9.783 63.6658 8.93567 63.3142 8.31075 62.6892C7.68583 62.0644 7.3343 61.217 7.33331 60.3333V30.3333H60.6668V60.3333Z" fill="black"/>
</svg>
