<svg width="28" height="28" viewBox="0 0 28 28" fill="none" xmlns="http://www.w3.org/2000/svg">
<path d="M14 0C6.3 0 0 6.3 0 14C0 21.7 6.3 28 14 28C21.7 28 28 21.7 28 14C28 6.3 21.7 0 14 0ZM17.5 16.1C17.9 16.5 17.9 17.1 17.5 17.5C17.3 17.7 17 17.8 16.8 17.8C16.6 17.8 16.3 17.7 16.1 17.5L14 15.4L11.9 17.5C11.7 17.7 11.4 17.8 11.2 17.8C11 17.8 10.7 17.7 10.5 17.5C10.1 17.1 10.1 16.5 10.5 16.1L12.6 14L10.5 11.9C10.1 11.5 10.1 10.9 10.5 10.5C10.9 10.1 11.5 10.1 11.9 10.5L14 12.6L16.1 10.5C16.5 10.1 17.1 10.1 17.5 10.5C17.9 10.9 17.9 11.5 17.5 11.9L15.4 14L17.5 16.1Z" fill="black"/>
</svg>
