<svg width="21" height="21" viewBox="0 0 21 21" fill="none" xmlns="http://www.w3.org/2000/svg">
<path d="M11.3704 18.2963H3.66668V2.88888H11.3704C11.9482 2.88888 12.3333 2.50369 12.3333 1.92591C12.3333 1.34814 11.9482 0.962952 11.3704 0.962952H2.70372C2.12594 0.962952 1.74075 1.34814 1.74075 1.92591V19.2592C1.74075 19.837 2.12594 20.2222 2.70372 20.2222H11.3704C11.9482 20.2222 12.3333 19.837 12.3333 19.2592C12.3333 18.6815 11.9482 18.2963 11.3704 18.2963Z" fill="#1F103A"/>
<path d="M18.7852 9.91851L14.9333 6.06666C14.5482 5.68147 13.9704 5.68147 13.5852 6.06666C13.2 6.45185 13.2 7.02962 13.5852 7.41481L15.8 9.62962H5.5926C5.01482 9.62962 4.62964 10.0148 4.62964 10.5926C4.62964 11.1704 5.01482 11.5555 5.5926 11.5555H15.8L13.5852 13.7704C13.2 14.1555 13.2 14.7333 13.5852 15.1185C13.7778 15.3111 14.0667 15.4074 14.2593 15.4074C14.4519 15.4074 14.7408 15.3111 14.9333 15.1185L18.7852 11.2667C19.1704 10.8815 19.1704 10.3037 18.7852 9.91851Z" fill="#1F103A"/>
</svg>
