<svg width="21" height="16" viewBox="0 0 21 16" fill="none" xmlns="http://www.w3.org/2000/svg">
<path d="M10.5 3.1L3.59999 8.8V14.5C3.59999 14.7 3.69999 14.9 3.79999 15C3.99999 15.2 4.09999 15.2 4.29999 15.2H8.99999V10.6H12V15.2H16.6C16.8 15.2 17 15.1 17.1 15C17.3 14.8 17.3 14.7 17.3 14.5V8.8V8.7L10.5 3.1ZM20 7.5L17.4 5.3V0.4C17.4 0.3 17.4 0.2 17.3 0.0999999C17.2 -9.68575e-08 17.1 0 17 0H14.7C14.6 0 14.5 -9.68575e-08 14.4 0.0999999C14.3 0.2 14.3 0.3 14.3 0.4V2.7L11.4 0.3C11.2 0.1 10.9 0 10.5 0C10.1 0 9.79999 0.1 9.59999 0.3L0.999994 7.5C0.899994 7.6 0.899994 7.6 0.899994 7.8C0.899994 7.9 0.899994 8 0.999994 8.1L1.69999 9C1.69999 9 1.79999 9 1.89999 9.1C1.99999 9.1 2.09999 9.1 2.19999 9L10.5 2.1L18.8 9C18.9 9.1 18.9 9.1 19.1 9.1C19.2 9.1 19.3 9 19.4 9L20.1 8.1C20.2 8 20.2 7.9 20.2 7.8C20.1 7.7 20.1 7.6 20 7.5Z" fill="url(#paint0_linear_303_34)"/>
<defs>
<linearGradient id="paint0_linear_303_34" x1="0.846094" y1="7.7055" x2="20.1588" y2="7.7055" gradientUnits="userSpaceOnUse">
<stop stop-color="#1245C6"/>
<stop offset="1" stop-color="#9909B7"/>
</linearGradient>
</defs>
</svg>
