<svg width="16" height="11" viewBox="0 0 16 11" fill="none" xmlns="http://www.w3.org/2000/svg">
<path fill-rule="evenodd" clip-rule="evenodd" d="M8 1C2.46154 1 0 5.5 0 5.5C0 5.5 2.46154 10 8 10C13.5385 10 16 5.5 16 5.5C16 5.5 13.5385 1 8 1ZM8 1.64286C3.07692 1.64286 0.738432 5.5 0.738432 5.5C0.738432 5.5 3.07692 9.35714 8 9.35714C12.9231 9.35714 15.2616 5.5 15.2616 5.5C15.2616 5.5 12.9231 1.64286 8 1.64286ZM8 8.07143C9.35947 8.07143 10.4615 6.92016 10.4615 5.5C10.4615 4.07984 9.35947 2.92857 8 2.92857C6.64053 2.92857 5.53846 4.07984 5.53846 5.5C5.53846 6.92016 6.64053 8.07143 8 8.07143ZM8 7.42857C9.0196 7.42857 9.84615 6.56512 9.84615 5.5C9.84615 4.43488 9.0196 3.57143 8 3.57143C6.9804 3.57143 6.15385 4.43488 6.15385 5.5C6.15385 6.56512 6.9804 7.42857 8 7.42857ZM8 6.14286C8.33987 6.14286 8.61538 5.85504 8.61538 5.5C8.61538 5.14496 8.33987 4.85714 8 4.85714C7.66013 4.85714 7.38462 5.14496 7.38462 5.5C7.38462 5.85504 7.66013 6.14286 8 6.14286Z" fill="black"/>
</svg>


