<svg width="11" height="20" viewBox="0 0 11 20" fill="none" xmlns="http://www.w3.org/2000/svg">
<path d="M10.7 5.2C10.6 5.1 10.4 5 10.3 5H10.2L5.50001 6.2L7.50001 0.7C7.50001 0.6 7.60001 0.5 7.60001 0.5C7.60001 0.4 7.50001 0.2 7.40001 0.0999999C7.30001 -9.68575e-08 7.20001 0 7.00001 0H3.10001C2.90001 0 2.80001 -9.68575e-08 2.70001 0.0999999C2.60001 0.2 2.60001 0.3 2.50001 0.4L0.100006 10.3C0.100006 10.5 0.100006 10.6 0.300006 10.8C0.400006 10.9 0.500006 10.9 0.700006 10.9C0.800006 10.9 0.800006 10.9 0.800006 10.9L5.70001 9.7L3.30001 19.4C3.30001 19.5 3.30001 19.6 3.40001 19.8C3.50001 19.9 3.60001 20 3.70001 20C3.80001 20 3.80001 20 3.90001 20C4.10001 20 4.30001 19.9 4.40001 19.7L10.9 5.8C10.9 5.6 10.9 5.4 10.7 5.2Z" fill="url(#paint0_linear_303_22)"/>
<defs>
<linearGradient id="paint0_linear_303_22" x1="0.125706" y1="9.9665" x2="10.8621" y2="9.9665" gradientUnits="userSpaceOnUse">
<stop stop-color="#1245C6"/>
<stop offset="1" stop-color="#9909B7"/>
</linearGradient>
</defs>
</svg>
