<svg width="23" height="23" viewBox="0 0 23 23" fill="none" xmlns="http://www.w3.org/2000/svg">
<path d="M9.2 17.2411C11.1612 17.2411 12.9442 16.5457 14.3349 15.369L20.5752 21.6093C20.7178 21.7519 20.8961 21.8233 21.0922 21.8233C21.2884 21.8233 21.4667 21.7519 21.6093 21.6093C21.8946 21.324 21.8946 20.8605 21.6093 20.5752L15.369 14.3349C16.5279 12.9442 17.2411 11.1434 17.2411 9.2C17.2411 4.76046 13.6395 1.15891 9.2 1.15891C4.77829 1.15891 1.15891 4.77829 1.15891 9.2C1.15891 13.6395 4.77829 17.2411 9.2 17.2411ZM9.2 2.62093C12.8372 2.62093 15.7791 5.58062 15.7791 9.2C15.7791 12.8372 12.8372 15.7791 9.2 15.7791C5.56279 15.7791 2.62093 12.8194 2.62093 9.2C2.62093 5.58062 5.58062 2.62093 9.2 2.62093Z" fill="#1F103A"/>
</svg>
