<svg width="18" height="18" viewBox="0 0 18 18" fill="none" xmlns="http://www.w3.org/2000/svg">
<path d="M17.3948 17.8856L11.4332 11.924C10.1064 13.1176 8.36598 13.746 6.58269 13.6753C4.79941 13.6046 3.11419 12.8405 1.886 11.5456C0.657797 10.2508 -0.0163138 8.52758 0.00725044 6.74305C0.0308147 4.95853 0.750192 3.25372 2.01215 1.99176C3.27411 0.729798 4.97892 0.0104213 6.76345 -0.0131429C8.54797 -0.0367071 10.2712 0.637404 11.566 1.8656C12.8609 3.0938 13.625 4.77902 13.6957 6.5623C13.7664 8.34558 13.138 10.086 11.9444 11.4128L17.906 17.3744L17.3948 17.8856ZM6.8612 0.72081C5.64987 0.716535 4.46452 1.07183 3.45525 1.7417C2.44598 2.41157 1.65821 3.36588 1.19168 4.48378C0.725162 5.60168 0.600879 6.83288 0.834576 8.02147C1.06827 9.21005 1.64944 10.3025 2.50447 11.1606C3.3595 12.0187 4.44994 12.6037 5.63769 12.8416C6.82543 13.0795 8.05707 12.9596 9.17661 12.497C10.2962 12.0344 11.2532 11.25 11.9267 10.2431C12.6001 9.23624 12.9596 8.05215 12.9596 6.84081C12.9577 5.222 12.3153 3.66972 11.1726 2.52302C10.03 1.37633 8.48 0.728418 6.8612 0.72081V0.72081Z" fill="#0E1D25"/>
</svg>
