<svg width="22" height="20" viewBox="0 0 22 20" fill="none" xmlns="http://www.w3.org/2000/svg">
<path d="M10.5495 1.08895C10.7312 0.711409 11.2688 0.711409 11.4505 1.08895L13.6956 5.7535C13.9192 6.21801 14.3656 6.53517 14.8779 6.59337L20.1262 7.18972C20.5562 7.23858 20.7253 7.77365 20.4014 8.06072L16.58 11.4474C16.1778 11.8038 15.997 12.3482 16.1061 12.8745L17.1292 17.809C17.2154 18.2245 16.7773 18.5517 16.4033 18.3511L11.7091 15.833C11.2662 15.5954 10.7338 15.5954 10.2909 15.833L5.59674 18.3511C5.22274 18.5517 4.78463 18.2245 4.87079 17.809L5.8939 12.8745C6.00301 12.3482 5.82224 11.8038 5.42002 11.4474L1.59864 8.06072C1.27473 7.77365 1.44378 7.23858 1.87382 7.18972L7.12213 6.59337C7.63435 6.53517 8.0808 6.21801 8.30437 5.7535L10.5495 1.08895Z" fill="#1F103A" stroke="#1F103A"/>
</svg>
