<svg width="16" height="11" viewBox="0 0 16 11" fill="none" xmlns="http://www.w3.org/2000/svg">
<path fill-rule="evenodd" clip-rule="evenodd" d="M3.14381 8.48913C0.9952 7.22951 0 5.5 0 5.5C0 5.5 2.46154 1.22222 8 1.22222C8.80278 1.22222 9.5409 1.3121 10.2163 1.46579L9.6935 1.98495C9.1675 1.88837 8.60313 1.83333 8 1.83333C3.07692 1.83333 0.73843 5.5 0.73843 5.5C0.73843 5.5 1.6706 6.96161 3.59688 8.03921L3.14381 8.48913ZM5.78373 9.53421C6.45909 9.6879 7.19722 9.77778 8 9.77778C13.5385 9.77778 16 5.5 16 5.5C16 5.5 15.0048 3.77049 12.8562 2.51087L12.4031 2.96079C14.3294 4.03839 15.2616 5.5 15.2616 5.5C15.2616 5.5 12.9231 9.16667 8 9.16667C7.39687 9.16667 6.83252 9.11163 6.30652 9.01505L5.78373 9.53421ZM10.3992 4.95082C10.44 5.12735 10.4615 5.31118 10.4615 5.5C10.4615 6.85003 9.3595 7.94444 8 7.94444C7.80986 7.94444 7.62475 7.92303 7.44698 7.88251L8 7.33333C8.47247 7.33333 8.94494 7.15434 9.3054 6.79636C9.6659 6.43838 9.8462 5.96919 9.8462 5.5L10.3992 4.95082ZM8.55302 3.11749C8.37525 3.07697 8.19015 3.05556 8 3.05556C6.64053 3.05556 5.53846 4.14997 5.53846 5.5C5.53846 5.68882 5.56002 5.87265 5.60083 6.04918L6.15385 5.5C6.15385 5.03081 6.33409 4.56162 6.69457 4.20364C7.05506 3.84566 7.52753 3.66667 8 3.66667L8.55302 3.11749ZM12.9231 0L2.46154 10.3889L3.07692 11L13.5385 0.611111L12.9231 0Z" fill="black"/>
</svg>

