<svg width="54" height="72" viewBox="0 0 54 72" fill="none" xmlns="http://www.w3.org/2000/svg">
<g clip-path="url(#clip0_318_32)">
<path d="M22.0249 70.5736L22.0249 16.0546H29.5713C29.912 16.0546 30.2063 15.9297 30.4557 15.679C30.7048 15.4276 30.8291 15.1304 30.8291 14.7871C30.8291 14.4171 30.7114 14.1132 30.4755 13.8763L17.8983 1.19723C17.6625 0.960341 17.361 0.841548 16.9946 0.841548C16.6274 0.841548 16.3258 0.96034 16.0906 1.1982L3.55253 13.8363C3.29014 14.1536 3.15936 14.4708 3.15936 14.788C3.15936 15.1575 3.2772 15.4615 3.51288 15.6988C3.74897 15.9363 4.0499 16.0549 4.41691 16.0549H11.9633L11.9633 70.5736C11.9633 70.9169 12.0876 71.214 12.3366 71.4649C12.5857 71.7158 12.8803 71.8413 13.2208 71.8413H20.7672C21.1078 71.8413 21.4025 71.716 21.6514 71.4649C21.9003 71.2139 22.0249 70.9169 22.0249 70.5736Z" fill="#989AC8"/>
<path d="M36.9378 7.87415V53.9886H30.4484C30.1555 53.9886 29.9021 54.0948 29.688 54.3069C29.4739 54.5192 29.367 54.7707 29.367 55.061C29.367 55.374 29.4683 55.6307 29.671 55.8318L40.4856 66.5559C40.689 66.7565 40.9475 66.8574 41.2636 66.8574C41.5561 66.8574 41.8043 66.757 42.0064 66.5559L52.8219 55.8651C53.0471 55.5969 53.1594 55.3288 53.1594 55.0606C53.1594 54.7703 53.0525 54.5189 52.839 54.3067C52.6244 54.0946 52.3715 53.9883 52.0782 53.9883H45.5892V7.87415C45.5892 7.58327 45.4828 7.33267 45.2684 7.11974C45.054 6.90763 44.8009 6.80198 44.5076 6.80198H38.0186C37.7256 6.80198 37.4725 6.90798 37.2586 7.11974C37.0447 7.33267 36.9378 7.58339 36.9378 7.87415Z" fill="#9F98C8" fill-opacity="0.36"/>
</g>
<defs>
<clipPath id="clip0_318_32">
<rect width="71" height="53.1092" fill="white" transform="translate(0.891602 71.8413) rotate(-90)"/>
</clipPath>
</defs>
</svg>
