<svg width="55" height="73" viewBox="0 0 55 73" fill="none" xmlns="http://www.w3.org/2000/svg">
<g clip-path="url(#clip0_315_3)">
<path d="M33.1023 2.14697L32.7282 56.6646L25.182 56.6129C24.8413 56.6105 24.5461 56.7334 24.2951 56.9824C24.0442 57.232 23.9179 57.5284 23.9155 57.8718C23.913 58.2417 24.0286 58.5464 24.2629 58.7849L36.7528 71.55C36.9869 71.7885 37.2876 71.9094 37.654 71.9119C38.0212 71.9144 38.3236 71.7977 38.5605 71.5614L51.185 59.0096C51.4495 58.6942 51.5825 58.3779 51.5846 58.0606C51.5872 57.6912 51.4714 57.3864 51.2374 57.1475C51.0029 56.9084 50.7028 56.7877 50.3358 56.7852L42.7896 56.7334L43.1637 2.21601C43.1661 1.87269 43.0438 1.57473 42.7965 1.32212C42.5492 1.06952 42.2555 0.942048 41.9149 0.939711L34.3687 0.88793C34.0281 0.885593 33.7325 1.00888 33.4819 1.25821C33.2313 1.50754 33.1047 1.80365 33.1023 2.14697Z" fill="#989AC8"/>
<path d="M17.7596 64.7426L18.076 18.6293L24.5653 18.6738C24.8581 18.6758 25.1123 18.5713 25.3278 18.3607C25.5434 18.1498 25.652 17.8991 25.654 17.6088C25.6561 17.2958 25.5566 17.0384 25.3553 16.8359L14.6145 6.03783C14.4125 5.83584 14.1547 5.73324 13.8386 5.73107C13.5461 5.72906 13.2972 5.82772 13.0938 6.0274L2.20512 16.6437C1.97813 16.9104 1.86395 17.1777 1.86211 17.4459C1.86012 17.7362 1.96529 17.9884 2.17738 18.202C2.39054 18.4156 2.64266 18.5236 2.93599 18.5256L9.42481 18.5701L9.10838 64.6832C9.10639 64.9741 9.21109 65.2254 9.424 65.4398C9.63692 65.6534 9.88928 65.7608 10.1826 65.7628L16.6714 65.8073C16.9644 65.8093 17.2182 65.7051 17.4336 65.4948C17.6489 65.2833 17.7576 65.0333 17.7596 64.7426Z" fill="#9F98C8" fill-opacity="0.36"/>
</g>
<defs>
<clipPath id="clip0_315_3">
<rect width="71" height="53.1092" fill="white" transform="translate(54.2438 1.02431) rotate(90.3932)"/>
</clipPath>
</defs>
</svg>
